<svg width="20" height="19" viewBox="0 0 20 19" fill="none" xmlns="http://www.w3.org/2000/svg">
<path d="M18.6934 5.17536L17.9478 4.85904L17.8348 4.20378C16.9762 3.09664 14.6535 0.751286 12.2313 0.227084C9.61027 -0.34015 7.57674 0.317464 7.19262 0.453033C6.26623 0.77999 5.68818 1.59582 7.78009 2.05727C9.31654 2.39619 10.9509 3.39037 11.7342 4.04562V5.17536L13.5 8L14.31 7.99972L14.6489 9.44579C14.8749 9.64162 15.4217 10.0965 15.8013 10.3496C16.1809 10.6027 16.5168 10.455 16.6373 10.3496C17.5787 9.34788 19.5249 7.26765 19.778 6.96036C20.031 6.65307 19.8834 6.29004 19.778 6.14694L18.6934 5.17536Z" fill="#2D2D2D"/>
<path d="M12.5 8.5L11 6L0.479071 15.7056C0.117553 16.1726 -0.388573 17.2963 0.479071 18.0555C1.34671 18.8147 2.22641 18.4321 2.5578 18.1459L12.5 8.5Z" fill="#AD5D31"/>
</svg>
